<svg width="48" height="48" viewBox="0 0 48 48" fill="none" xmlns="http://www.w3.org/2000/svg">
  <defs>
    <!-- Radial gradient for the background -->
    <radialGradient id="bgGradient" cx="50%" cy="50%" r="50%">
      <stop offset="0%" style="stop-color:#1a3d2e;stop-opacity:1" />
      <stop offset="100%" style="stop-color:#0a1f1a;stop-opacity:1" />
    </radialGradient>
    <!-- Radial gradient for the glow effect -->
    <radialGradient id="glowGradient" cx="50%" cy="50%" r="70%">
      <stop offset="0%" style="stop-color:#00ff87;stop-opacity:0.6" />
      <stop offset="50%" style="stop-color:#00cc6a;stop-opacity:0.3" />
      <stop offset="100%" style="stop-color:#00aa55;stop-opacity:0.1" />
    </radialGradient>
  </defs>

  <!-- Dark background circle -->
  <circle cx="24" cy="24" r="24" fill="url(#bgGradient)" />

  <!-- Outer glow -->
  <circle cx="24" cy="24" r="20" fill="url(#glowGradient)" />

  <!-- Inner green circle background -->
  <circle cx="24" cy="24" r="16" fill="#1a4d33" />

  <!-- Crescent moon shape -->
  <path d="M18 12C18 12 28 15 28 24C28 33 18 36 18 36C22 34 24 29 24 24C24 19 22 14 18 12Z"
    fill="#00ff87" />

  <!-- Additional glow on the moon -->
  <path d="M18 12C18 12 28 15 28 24C28 33 18 36 18 36C22 34 24 29 24 24C24 19 22 14 18 12Z"
    fill="#66ffaa" opacity="0.4" />
</svg>