<svg width="32" height="32" viewBox="0 0 32 32" fill="none" xmlns="http://www.w3.org/2000/svg">
    <defs>
        <radialGradient id="bgGradient32" cx="50%" cy="50%" r="50%">
            <stop offset="0%" style="stop-color:#1a3d2e;stop-opacity:1" />
            <stop offset="100%" style="stop-color:#0a1f1a;stop-opacity:1" />
        </radialGradient>
        <radialGradient id="glowGradient32" cx="50%" cy="50%" r="70%">
            <stop offset="0%" style="stop-color:#00ff87;stop-opacity:0.5" />
            <stop offset="50%" style="stop-color:#00cc6a;stop-opacity:0.2" />
            <stop offset="100%" style="stop-color:#00aa55;stop-opacity:0.1" />
        </radialGradient>
    </defs>
    <circle cx="16" cy="16" r="16" fill="url(#bgGradient32)" />
    <circle cx="16" cy="16" r="13" fill="url(#glowGradient32)" />
    <circle cx="16" cy="16" r="11" fill="#1a4d33" />
    <path d="M12 8C12 8 19 10 19 16C19 22 12 24 12 24C15 23 16 19.5 16 16C16 12.5 15 9 12 8Z"
        fill="#00ff87" />
    <path d="M12 8C12 8 19 10 19 16C19 22 12 24 12 24C15 23 16 19.5 16 16C16 12.5 15 9 12 8Z"
        fill="#66ffaa" opacity="0.3" />
</svg>